<svg width="32" height="32" viewBox="0 0 32 32" fill="none" xmlns="http://www.w3.org/2000/svg">
    <path d="M16 20C18.2091 20 20 18.2091 20 16C20 13.7909 18.2091 12 16 12C13.7909 12 12 13.7909 12 16C12 18.2091 13.7909 20 16 20Z" stroke="#0066FF" stroke-width="2" stroke-linecap="round" stroke-linejoin="round"/>
    <path d="M4.93 10.93C6.03 8.68 7.67 6.72 9.72 5.28C11.77 3.84 14.17 3 16.63 2.86C19.09 2.72 21.54 3.29 23.73 4.51C25.91 5.73 27.75 7.55 29.07 9.77" stroke="#0066FF" stroke-width="2" stroke-linecap="round" stroke-linejoin="round"/>
    <path d="M29.07 22.23C27.75 24.45 25.91 26.27 23.73 27.49C21.54 28.71 19.09 29.28 16.63 29.14C14.17 29 11.77 28.16 9.72 26.72C7.67 25.28 6.03 23.32 4.93 21.07" stroke="#0066FF" stroke-width="2" stroke-linecap="round" stroke-linejoin="round"/>
</svg> 